<svg width="43" height="42" viewBox="0 0 43 42" fill="none" xmlns="http://www.w3.org/2000/svg">
<path d="M8.50064 10.5833H37.2298C37.8119 10.5833 38.3876 10.7053 38.9197 10.9414C39.4518 11.1776 39.9285 11.5226 40.3191 11.9542C40.7097 12.3858 41.0055 12.8945 41.1875 13.4474C41.3695 14.0004 41.4336 14.5853 41.3756 15.1646L40.1256 27.6646C40.0228 28.6927 39.5417 29.646 38.7756 30.3393C38.0095 31.0327 37.0131 31.4166 35.9798 31.4166H16.084C15.1204 31.417 14.1864 31.0834 13.4412 30.4726C12.6959 29.8618 12.1853 29.0116 11.9965 28.0666L8.50064 10.5833Z" stroke="#41AEA9" stroke-width="2.91667" stroke-linejoin="round"/>
<path d="M8.50064 10.5833L6.81314 3.82708C6.70028 3.37657 6.44013 2.97668 6.07399 2.69095C5.70786 2.40521 5.25674 2.25001 4.79231 2.25H2.25064" stroke="#41AEA9" stroke-width="2.91667" stroke-linecap="round" stroke-linejoin="round"/>
<path d="M14.7506 39.75H18.9173" stroke="#41AEA9" stroke-width="2.91667" stroke-linecap="round" stroke-linejoin="round"/>
<path d="M31.4173 39.75H35.584" stroke="#41AEA9" stroke-width="2.91667" stroke-linecap="round" stroke-linejoin="round"/>
</svg>
