<svg width="18" height="18" viewBox="0 0 18 18" fill="none" xmlns="http://www.w3.org/2000/svg">
<path d="M8.22834 1.19416C8.495 0.490823 9.50417 0.490823 9.77167 1.19416L11.4967 5.97249C11.6175 6.28916 11.925 6.49999 12.2683 6.49999H16.5075C17.2908 6.49999 17.6325 7.47499 17.0167 7.95249L14 10.6667C13.8649 10.7705 13.7661 10.9146 13.7179 11.078C13.6697 11.2415 13.6745 11.4161 13.7317 11.5767L14.8333 16.2458C15.1017 16.9958 14.2333 17.64 13.5767 17.1783L9.47917 14.5783C9.33885 14.4797 9.17151 14.4268 9 14.4268C8.82849 14.4268 8.66116 14.4797 8.52084 14.5783L4.42334 17.1783C3.7675 17.64 2.89834 16.995 3.16667 16.2458L4.26834 11.5767C4.32548 11.4161 4.3303 11.2415 4.28209 11.078C4.23389 10.9146 4.13513 10.7705 4 10.6667L0.983336 7.95249C0.366669 7.47499 0.710003 6.49999 1.49167 6.49999H5.73084C5.89775 6.50055 6.06089 6.45041 6.19868 6.35622C6.33648 6.26202 6.44242 6.12821 6.5025 5.97249L8.2275 1.19416H8.22834Z" fill="#F0A500" stroke="#F0A500" stroke-linecap="round" stroke-linejoin="round"/>
</svg>
